<svg width="42" height="44" viewBox="0 0 42 44" fill="none" xmlns="http://www.w3.org/2000/svg">
<path d="M21 25.6667C27.4435 25.6667 32.6667 20.4435 32.6667 14C32.6667 7.55651 27.4435 2.33334 21 2.33334C14.5565 2.33334 9.33337 7.55651 9.33337 14C9.33337 20.4435 14.5565 25.6667 21 25.6667Z" stroke="#011627" stroke-width="2" stroke-linecap="round" stroke-linejoin="round"/>
<path d="M25.0833 14H18.0833M20.4166 10.5L16.9166 14L20.4166 17.5" stroke="#ED8F03" stroke-width="2" stroke-linecap="round" stroke-linejoin="round"/>
<path d="M10.0607 43V35.7273H12.7241C13.2402 35.7273 13.6675 35.8125 14.006 35.983C14.3446 36.151 14.5979 36.3795 14.766 36.6683C14.9341 36.9548 15.0181 37.2779 15.0181 37.6378C15.0181 37.9408 14.9625 38.1965 14.8512 38.4048C14.7399 38.6108 14.5908 38.7765 14.4038 38.902C14.2191 39.0251 14.0155 39.1151 13.793 39.1719V39.2429C14.0344 39.2547 14.27 39.3329 14.4996 39.4773C14.7317 39.6193 14.9234 39.8217 15.0749 40.0845C15.2264 40.3473 15.3022 40.6669 15.3022 41.0433C15.3022 41.415 15.2146 41.7488 15.0394 42.0447C14.8666 42.3383 14.5991 42.5715 14.2369 42.7443C13.8746 42.9148 13.4118 43 12.8484 43H10.0607ZM11.158 42.0589H12.7418C13.2674 42.0589 13.6438 41.9571 13.8711 41.7536C14.0984 41.55 14.212 41.2955 14.212 40.9901C14.212 40.7604 14.154 40.5497 14.038 40.358C13.922 40.1662 13.7563 40.0135 13.5408 39.8999C13.3278 39.7862 13.0745 39.7294 12.7809 39.7294H11.158V42.0589ZM11.158 38.8736H12.6282C12.8744 38.8736 13.0958 38.8262 13.2923 38.7315C13.4911 38.6368 13.6486 38.5043 13.7646 38.3338C13.8829 38.161 13.9421 37.9574 13.9421 37.723C13.9421 37.4223 13.8368 37.1702 13.6261 36.9666C13.4154 36.763 13.0922 36.6612 12.6566 36.6612H11.158V38.8736ZM18.1058 43.1207C17.7602 43.1207 17.4477 43.0568 17.1683 42.929C16.889 42.7988 16.6676 42.6106 16.5043 42.3643C16.3433 42.1181 16.2628 41.8163 16.2628 41.4588C16.2628 41.151 16.322 40.8977 16.4403 40.6989C16.5587 40.5 16.7185 40.3426 16.9197 40.2266C17.121 40.1106 17.3459 40.023 17.5945 39.9638C17.843 39.9046 18.0964 39.8596 18.3544 39.8288C18.6811 39.791 18.9463 39.7602 19.1499 39.7365C19.3535 39.7105 19.5014 39.669 19.5938 39.6122C19.6861 39.5554 19.7322 39.4631 19.7322 39.3352V39.3104C19.7322 39.0002 19.6446 38.7599 19.4695 38.5895C19.2966 38.419 19.0386 38.3338 18.6953 38.3338C18.3378 38.3338 18.0561 38.4131 17.8501 38.5717C17.6465 38.728 17.5057 38.902 17.4276 39.0938L16.4297 38.8665C16.5481 38.535 16.7209 38.2675 16.9482 38.0639C17.1778 37.858 17.4418 37.7088 17.7401 37.6165C18.0384 37.5218 18.352 37.4744 18.6811 37.4744C18.8989 37.4744 19.1297 37.5005 19.3736 37.5526C19.6198 37.6023 19.8494 37.6946 20.0625 37.8295C20.2779 37.9645 20.4543 38.1574 20.5916 38.4084C20.7289 38.657 20.7976 38.9801 20.7976 39.3778V43H19.7607V42.2543H19.718C19.6494 42.3916 19.5464 42.5265 19.4091 42.6591C19.2718 42.7917 19.0954 42.9018 18.88 42.9893C18.6645 43.0769 18.4065 43.1207 18.1058 43.1207ZM18.3366 42.2685C18.6302 42.2685 18.8812 42.2105 19.0895 42.0945C19.3002 41.9785 19.46 41.8269 19.5689 41.6399C19.6802 41.4505 19.7358 41.2481 19.7358 41.0327V40.3295C19.6979 40.3674 19.6245 40.4029 19.5156 40.4361C19.4091 40.4669 19.2872 40.4941 19.1499 40.5178C19.0125 40.5391 18.8788 40.5592 18.7486 40.5781C18.6184 40.5947 18.5095 40.6089 18.4219 40.6207C18.2159 40.6468 18.0277 40.6906 17.8572 40.7521C17.6892 40.8137 17.5542 40.9025 17.4524 41.0185C17.353 41.1321 17.3033 41.2836 17.3033 41.473C17.3033 41.7358 17.4003 41.9347 17.5945 42.0696C17.7886 42.2022 18.036 42.2685 18.3366 42.2685ZM24.5094 43.1101C23.9815 43.1101 23.5269 42.9905 23.1458 42.7514C22.767 42.5099 22.4758 42.1773 22.2722 41.7536C22.0686 41.3298 21.9668 40.8445 21.9668 40.2976C21.9668 39.7436 22.071 39.2547 22.2793 38.831C22.4876 38.4048 22.7812 38.0722 23.16 37.8331C23.5388 37.594 23.985 37.4744 24.4988 37.4744C24.9131 37.4744 25.2824 37.5514 25.6067 37.7053C25.931 37.8568 26.1926 38.0698 26.3915 38.3445C26.5927 38.6191 26.7123 38.9399 26.7502 39.3068H25.7168C25.66 39.0511 25.5298 38.831 25.3262 38.6463C25.1249 38.4616 24.8551 38.3693 24.5165 38.3693C24.2206 38.3693 23.9614 38.4474 23.7388 38.6037C23.5186 38.7576 23.347 38.9777 23.2239 39.2642C23.1008 39.5483 23.0392 39.8845 23.0392 40.2727C23.0392 40.6705 23.0996 41.0137 23.2203 41.3026C23.3411 41.5914 23.5115 41.8151 23.7317 41.9737C23.9542 42.1323 24.2158 42.2116 24.5165 42.2116C24.7177 42.2116 24.9 42.175 25.0634 42.1016C25.2291 42.0258 25.3676 41.9181 25.4789 41.7784C25.5925 41.6387 25.6718 41.4706 25.7168 41.2741H26.7502C26.7123 41.6269 26.5975 41.9418 26.4057 42.2188C26.214 42.4957 25.9571 42.7135 25.6351 42.8722C25.3155 43.0308 24.9403 43.1101 24.5094 43.1101ZM28.8622 41.1499L28.8551 39.8537H29.0398L31.2131 37.5455H32.4844L30.0057 40.1733H29.8388L28.8622 41.1499ZM27.8857 43V35.7273H28.9474V43H27.8857ZM31.3303 43L29.3771 40.4077L30.1087 39.6655L32.6335 43H31.3303Z" fill="#011627"/>
</svg>
