<svg width="52" height="38" viewBox="0 0 52 38" fill="none" xmlns="http://www.w3.org/2000/svg">
<path d="M11.354 30.1818H12.4194L14.2717 34.7045H14.3398L16.1921 30.1818H17.2575V36H16.4222V31.7898H16.3683L14.6523 35.9915H13.9592L12.2433 31.7869H12.1893V36H11.354V30.1818ZM19.0025 37.6364C18.8756 37.6364 18.7601 37.6259 18.6559 37.6051C18.5517 37.5862 18.4741 37.5653 18.4229 37.5426L18.6275 36.8466C18.7828 36.8883 18.921 36.9063 19.0423 36.9006C19.1635 36.8949 19.2705 36.8494 19.3633 36.7642C19.458 36.679 19.5413 36.5398 19.6133 36.3466L19.7184 36.0568L18.1218 31.6364H19.0309L20.136 35.0227H20.1815L21.2866 31.6364H22.1985L20.4002 36.5824C20.3169 36.8097 20.2108 37.0019 20.082 37.1591C19.9532 37.3182 19.7998 37.4375 19.6218 37.517C19.4438 37.5966 19.2373 37.6364 19.0025 37.6364ZM30.0146 32.0739H29.1282C29.0941 31.8845 29.0307 31.7178 28.9379 31.5739C28.8451 31.4299 28.7314 31.3078 28.5969 31.2074C28.4625 31.107 28.3119 31.0312 28.1452 30.9801C27.9805 30.929 27.8053 30.9034 27.6197 30.9034C27.2844 30.9034 26.9843 30.9877 26.7191 31.1562C26.4558 31.3248 26.2475 31.572 26.0941 31.8977C25.9426 32.2235 25.8668 32.6212 25.8668 33.0909C25.8668 33.5644 25.9426 33.964 26.0941 34.2898C26.2475 34.6155 26.4568 34.8617 26.7219 35.0284C26.9871 35.1951 27.2854 35.2784 27.6168 35.2784C27.8005 35.2784 27.9748 35.2538 28.1396 35.2045C28.3062 35.1534 28.4568 35.0786 28.5913 34.9801C28.7257 34.8816 28.8394 34.7614 28.9322 34.6193C29.0269 34.4754 29.0922 34.3106 29.1282 34.125L30.0146 34.1278C29.9672 34.4138 29.8754 34.6771 29.739 34.9176C29.6045 35.1562 29.4312 35.3627 29.2191 35.5369C29.0089 35.7093 28.7683 35.8428 28.4975 35.9375C28.2267 36.0322 27.9312 36.0795 27.6112 36.0795C27.1074 36.0795 26.6585 35.9602 26.2646 35.7216C25.8706 35.4811 25.56 35.1373 25.3327 34.6903C25.1074 34.2434 24.9947 33.7102 24.9947 33.0909C24.9947 32.4697 25.1083 31.9366 25.3356 31.4915C25.5629 31.0445 25.8735 30.7017 26.2674 30.4631C26.6613 30.2225 27.1093 30.1023 27.6112 30.1023C27.9199 30.1023 28.2077 30.1468 28.4748 30.2358C28.7437 30.3229 28.9852 30.4517 29.1992 30.6222C29.4132 30.7907 29.5903 30.9972 29.7305 31.2415C29.8706 31.4839 29.9653 31.7614 30.0146 32.0739ZM32.2667 36.0966C31.9902 36.0966 31.7402 36.0455 31.5167 35.9432C31.2932 35.839 31.1161 35.6884 30.9854 35.4915C30.8567 35.2945 30.7923 35.053 30.7923 34.767C30.7923 34.5208 30.8396 34.3182 30.9343 34.1591C31.029 34 31.1568 33.8741 31.3178 33.7812C31.4788 33.6884 31.6587 33.6184 31.8576 33.571C32.0565 33.5237 32.2591 33.4877 32.4656 33.4631C32.7269 33.4328 32.939 33.4081 33.1019 33.3892C33.2648 33.3684 33.3832 33.3352 33.457 33.2898C33.5309 33.2443 33.5678 33.1705 33.5678 33.0682V33.0483C33.5678 32.8002 33.4978 32.608 33.3576 32.4716C33.2193 32.3352 33.0129 32.267 32.7383 32.267C32.4523 32.267 32.2269 32.3305 32.0621 32.4574C31.8993 32.5824 31.7866 32.7216 31.7241 32.875L30.9258 32.6932C31.0205 32.428 31.1587 32.214 31.3406 32.0511C31.5243 31.8864 31.7354 31.767 31.9741 31.6932C32.2127 31.6174 32.4637 31.5795 32.7269 31.5795C32.9012 31.5795 33.0858 31.6004 33.2809 31.642C33.4779 31.6818 33.6616 31.7557 33.832 31.8636C34.0044 31.9716 34.1455 32.1259 34.2553 32.3267C34.3652 32.5256 34.4201 32.7841 34.4201 33.1023V36H33.5906V35.4034H33.5565C33.5015 35.5133 33.4192 35.6212 33.3093 35.7273C33.1995 35.8333 33.0584 35.9214 32.886 35.9915C32.7137 36.0616 32.5072 36.0966 32.2667 36.0966ZM32.4513 35.4148C32.6862 35.4148 32.887 35.3684 33.0536 35.2756C33.2222 35.1828 33.35 35.0616 33.4371 34.9119C33.5262 34.7604 33.5707 34.5985 33.5707 34.4261V33.8636C33.5404 33.8939 33.4817 33.9223 33.3945 33.9489C33.3093 33.9735 33.2118 33.9953 33.1019 34.0142C32.9921 34.0312 32.8851 34.0473 32.7809 34.0625C32.6767 34.0758 32.5896 34.0871 32.5195 34.0966C32.3548 34.1174 32.2042 34.1525 32.0678 34.2017C31.9334 34.2509 31.8254 34.322 31.744 34.4148C31.6644 34.5057 31.6246 34.6269 31.6246 34.7784C31.6246 34.9886 31.7023 35.1477 31.8576 35.2557C32.0129 35.3617 32.2108 35.4148 32.4513 35.4148ZM35.5515 36V31.6364H36.3725V32.3295H36.418C36.4975 32.0947 36.6377 31.91 36.8384 31.7756C37.0411 31.6392 37.2702 31.571 37.5259 31.571C37.579 31.571 37.6415 31.5729 37.7134 31.5767C37.7873 31.5805 37.8451 31.5852 37.8867 31.5909V32.4034C37.8526 32.3939 37.792 32.3835 37.7049 32.3722C37.6178 32.3589 37.5307 32.3523 37.4435 32.3523C37.2428 32.3523 37.0638 32.3949 36.9066 32.4801C36.7513 32.5634 36.6282 32.6799 36.5373 32.8295C36.4464 32.9773 36.4009 33.1458 36.4009 33.3352V36H35.5515ZM40.9165 31.6364V32.3182H38.533V31.6364H40.9165ZM39.1722 30.5909H40.0217V34.7188C40.0217 34.8835 40.0463 35.0076 40.0955 35.0909C40.1448 35.1723 40.2082 35.2282 40.2859 35.2585C40.3654 35.2869 40.4516 35.3011 40.5444 35.3011C40.6126 35.3011 40.6722 35.2964 40.7234 35.2869C40.7745 35.2775 40.8143 35.2699 40.8427 35.2642L40.9961 35.9659C40.9469 35.9848 40.8768 36.0038 40.7859 36.0227C40.695 36.0436 40.5813 36.0549 40.445 36.0568C40.2215 36.0606 40.0131 36.0208 39.82 35.9375C39.6268 35.8542 39.4705 35.7254 39.3512 35.5511C39.2319 35.3769 39.1722 35.1581 39.1722 34.8949V30.5909Z" fill="#011627"/>
<path d="M33.772 22.2001C33.772 22.5561 33.6666 22.9041 33.4691 23.2001C33.2716 23.4961 32.9908 23.7268 32.6624 23.863C32.334 23.9992 31.9726 24.0349 31.6239 23.9654C31.2752 23.896 30.9549 23.7246 30.7036 23.4728C30.4522 23.2211 30.281 22.9004 30.2116 22.5512C30.1423 22.2021 30.1779 21.8402 30.3139 21.5113C30.45 21.1824 30.6803 20.9013 30.9759 20.7035C31.2715 20.5057 31.619 20.4001 31.9745 20.4001C32.4513 20.4001 32.9084 20.5898 33.2455 20.9273C33.5826 21.2649 33.772 21.7227 33.772 22.2001ZM24.7848 20.4001C24.4293 20.4001 24.0817 20.5057 23.7861 20.7035C23.4906 20.9013 23.2602 21.1824 23.1241 21.5113C22.9881 21.8402 22.9525 22.2021 23.0218 22.5512C23.0912 22.9004 23.2624 23.2211 23.5138 23.4728C23.7651 23.7246 24.0854 23.896 24.4341 23.9654C24.7828 24.0349 25.1442 23.9992 25.4726 23.863C25.801 23.7268 26.0818 23.4961 26.2793 23.2001C26.4768 22.9041 26.5822 22.5561 26.5822 22.2001C26.5822 21.7227 26.3928 21.2649 26.0557 20.9273C25.7187 20.5898 25.2615 20.4001 24.7848 20.4001ZM29.2304 9.2525L34.0236 4.45266C34.2493 4.2267 34.376 3.92024 34.376 3.60068C34.376 3.28113 34.2493 2.97467 34.0236 2.74871C33.798 2.52275 33.492 2.39581 33.1728 2.39581C32.8537 2.39581 32.5477 2.52275 32.3221 2.74871L28.3796 6.70858L26.8338 5.14863C26.6082 4.92268 26.3022 4.79574 25.9831 4.79574C25.6639 4.79574 25.3579 4.92268 25.1323 5.14863C24.9066 5.37459 24.7799 5.68105 24.7799 6.00061C24.7799 6.32016 24.9066 6.62662 25.1323 6.85258L27.5289 9.2525C27.6403 9.36497 27.7728 9.45424 27.9188 9.51516C28.0648 9.57608 28.2215 9.60745 28.3796 9.60745C28.5378 9.60745 28.6945 9.57608 28.8405 9.51516C28.9865 9.45424 29.119 9.36497 29.2304 9.2525Z" fill="#ED8F03"/>
<path d="M33.4364 18.0002H23.3467C22.7944 18.0143 22.2541 17.8369 21.8174 17.498C21.3806 17.1591 21.0743 16.6794 20.9501 16.1403L17.8346 2.40071H15.1983C14.8805 2.40071 14.5757 2.27428 14.351 2.04925C14.1262 1.82421 14 1.519 14 1.20075C14 0.882496 14.1262 0.577282 14.351 0.352245C14.5757 0.127209 14.8805 0.000784963 15.1983 0.000784963H17.8346C18.3869 -0.0133607 18.9272 0.164051 19.3639 0.502988C19.8006 0.841926 20.107 1.32157 20.2312 1.86072L23.3467 15.6003H33.4364L35.5694 6.91256C35.6456 6.59431 35.845 6.31944 36.1237 6.14841C36.4024 5.97738 36.7375 5.92421 37.0553 6.00059C37.3731 6.07697 37.6476 6.27665 37.8183 6.55569C37.9891 6.83474 38.0422 7.17029 37.966 7.48854L35.797 16.1883C35.6649 16.7124 35.3598 17.1765 34.9314 17.5053C34.5029 17.8342 33.9762 18.0085 33.4364 18.0002Z" fill="#011627"/>
</svg>
