<svg width="48" height="48" viewBox="0 0 48 48" fill="none" xmlns="http://www.w3.org/2000/svg">
<path d="M14.1538 22.6051C13.4974 21.9487 12.4308 21.9487 11.7744 22.6051C11.1179 23.2615 11.1179 24.3282 11.7744 24.9846L19.5282 32.7385C19.8564 33.0667 20.2667 33.2308 20.7179 33.2308C20.759 33.2308 20.759 33.2308 20.8 33.2308C21.2513 33.1897 21.7026 32.9846 22.0308 32.6154L41.4359 9.35385C42.0102 8.65641 41.9282 7.58975 41.2308 6.97436C40.5333 6.40001 39.4667 6.48206 38.8513 7.17949L20.5949 29.0462L14.1538 22.6051Z" fill="#17AB13"/>
<path d="M36.5538 3.8154C27.1179 -2.09229 15.0154 -0.697422 7.13845 7.1795C-2.13335 16.4513 -2.13335 31.5898 7.13845 40.8616C11.7743 45.4975 17.8872 47.8359 23.959 47.8359C30.0308 47.8359 36.1436 45.4975 40.7795 40.8616C48.6974 32.9436 50.0513 20.8 44.1026 11.3641C43.6102 10.5846 42.5846 10.3385 41.8051 10.8308C41.0256 11.3231 40.7795 12.3487 41.2718 13.1282C46.4 21.2513 45.2102 31.6718 38.4 38.4821C30.441 46.441 17.4359 46.441 9.47691 38.4821C1.51793 30.5231 1.51793 17.518 9.47691 9.55899C16.2872 2.78976 26.6667 1.60001 34.7897 6.64617C35.5692 7.13848 36.5949 6.89232 37.0872 6.11283C37.5795 5.33335 37.3333 4.30771 36.5538 3.8154Z" fill="#4A4A4A"/>
</svg>
