<svg width="42" height="44" viewBox="0 0 42 44" fill="none" xmlns="http://www.w3.org/2000/svg">
<path d="M21 21V14" stroke="#ED8F03" stroke-width="3" stroke-linecap="round" stroke-linejoin="round"/>
<path d="M18.7483 3.29L10.6633 9.765C9.75332 10.4883 9.16998 12.0167 9.36832 13.16L10.92 22.4467C11.2 24.1033 12.7867 25.445 14.4667 25.445H27.5333C29.2017 25.445 30.8 24.0917 31.08 22.4467L32.6317 13.16C32.8183 12.0167 32.235 10.4883 31.3367 9.765L23.2517 3.30166C22.0033 2.29833 19.985 2.29833 18.7483 3.29Z" stroke="#011627" stroke-width="2" stroke-linecap="round" stroke-linejoin="round"/>
<path d="M7.72186 43V35.7273H8.81916V38.8878H12.4449V35.7273H13.5457V43H12.4449V39.8288H8.81916V43H7.72186ZM17.3561 43.1101C16.8447 43.1101 16.3985 42.9929 16.0173 42.7585C15.6362 42.5241 15.3402 42.1963 15.1295 41.7749C14.9188 41.3535 14.8135 40.861 14.8135 40.2976C14.8135 39.7318 14.9188 39.237 15.1295 38.8132C15.3402 38.3894 15.6362 38.0604 16.0173 37.826C16.3985 37.5916 16.8447 37.4744 17.3561 37.4744C17.8675 37.4744 18.3137 37.5916 18.6949 37.826C19.076 38.0604 19.372 38.3894 19.5827 38.8132C19.7934 39.237 19.8987 39.7318 19.8987 40.2976C19.8987 40.861 19.7934 41.3535 19.5827 41.7749C19.372 42.1963 19.076 42.5241 18.6949 42.7585C18.3137 42.9929 17.8675 43.1101 17.3561 43.1101ZM17.3596 42.2188C17.6911 42.2188 17.9657 42.1312 18.1835 41.956C18.4013 41.7808 18.5623 41.5476 18.6665 41.2564C18.773 40.9652 18.8263 40.6444 18.8263 40.294C18.8263 39.946 18.773 39.6264 18.6665 39.3352C18.5623 39.0417 18.4013 38.8061 18.1835 38.6286C17.9657 38.451 17.6911 38.3622 17.3596 38.3622C17.0258 38.3622 16.7488 38.451 16.5287 38.6286C16.3109 38.8061 16.1487 39.0417 16.0422 39.3352C15.938 39.6264 15.8859 39.946 15.8859 40.294C15.8859 40.6444 15.938 40.9652 16.0422 41.2564C16.1487 41.5476 16.3109 41.7808 16.5287 41.956C16.7488 42.1312 17.0258 42.2188 17.3596 42.2188ZM21.0839 43V37.5455H22.1031V38.4332H22.1705C22.2842 38.1326 22.47 37.8982 22.7281 37.7301C22.9861 37.5597 23.2951 37.4744 23.6549 37.4744C24.0195 37.4744 24.3249 37.5597 24.5711 37.7301C24.8197 37.9006 25.0032 38.1349 25.1215 38.4332H25.1784C25.3086 38.142 25.5157 37.91 25.7998 37.7372C26.0839 37.562 26.4224 37.4744 26.8154 37.4744C27.3102 37.4744 27.7139 37.6295 28.0264 37.9396C28.3412 38.2498 28.4987 38.7173 28.4987 39.3423V43H27.4369V39.4418C27.4369 39.0724 27.3363 38.8049 27.135 38.6392C26.9338 38.4735 26.6935 38.3906 26.4142 38.3906C26.0685 38.3906 25.7998 38.4972 25.608 38.7102C25.4163 38.9209 25.3204 39.192 25.3204 39.5234V43H24.2622V39.3743C24.2622 39.0784 24.1698 38.8404 23.9852 38.6605C23.8005 38.4806 23.5602 38.3906 23.2643 38.3906C23.0631 38.3906 22.8772 38.4439 22.7068 38.5504C22.5387 38.6546 22.4026 38.8002 22.2984 38.9872C22.1966 39.1742 22.1457 39.3909 22.1457 39.6371V43H21.0839ZM32.2726 43.1101C31.7352 43.1101 31.2724 42.9953 30.8841 42.7656C30.4983 42.5336 30.2 42.2081 29.9893 41.7891C29.7809 41.3677 29.6768 40.8741 29.6768 40.3082C29.6768 39.7495 29.7809 39.2571 29.9893 38.831C30.2 38.4048 30.4935 38.0722 30.8699 37.8331C31.2487 37.594 31.6914 37.4744 32.1981 37.4744C32.5058 37.4744 32.8041 37.5253 33.093 37.6271C33.3818 37.7289 33.641 37.8887 33.8706 38.1065C34.1003 38.3243 34.2814 38.6072 34.414 38.9553C34.5465 39.3009 34.6128 39.7211 34.6128 40.2159V40.5923H30.2769V39.7969H33.5724C33.5724 39.5175 33.5155 39.2701 33.4019 39.0547C33.2883 38.8369 33.1285 38.6652 32.9225 38.5398C32.7189 38.4143 32.4798 38.3516 32.2052 38.3516C31.9069 38.3516 31.6465 38.425 31.4239 38.5717C31.2037 38.7161 31.0333 38.9055 30.9126 39.1399C30.7942 39.3719 30.735 39.6241 30.735 39.8963V40.5178C30.735 40.8823 30.7989 41.1925 30.9268 41.4482C31.057 41.7038 31.2381 41.8991 31.4701 42.0341C31.7021 42.1667 31.9732 42.233 32.2833 42.233C32.4845 42.233 32.668 42.2045 32.8337 42.1477C32.9994 42.0885 33.1427 42.0009 33.2634 41.8849C33.3841 41.7689 33.4765 41.6257 33.5404 41.4553L34.5454 41.6364C34.4649 41.9323 34.3205 42.1915 34.1121 42.4141C33.9062 42.6342 33.6469 42.8059 33.3344 42.929C33.0243 43.0497 32.6704 43.1101 32.2726 43.1101Z" fill="#011627"/>
</svg>
