<svg width="28" height="28" viewBox="0 0 28 28" fill="none" xmlns="http://www.w3.org/2000/svg">
<path d="M23.2222 10.6982L25.6258 13.1018C25.7444 13.2194 25.8385 13.3593 25.9027 13.5135C25.9669 13.6676 26 13.833 26 14C26 14.167 25.9669 14.3324 25.9027 14.4865C25.8385 14.6407 25.7444 14.7806 25.6258 14.8982L23.2222 17.3018C22.9885 17.5374 22.8567 17.8554 22.8553 18.1873V21.5903C22.8553 21.9258 22.7221 22.2476 22.4848 22.4848C22.2476 22.7221 21.9258 22.8553 21.5903 22.8553H18.1873C17.8554 22.8567 17.5374 22.9885 17.3018 23.2222L14.8982 25.6258C14.7806 25.7444 14.6407 25.8385 14.4865 25.9027C14.3324 25.9669 14.167 26 14 26C13.833 26 13.6676 25.9669 13.5135 25.9027C13.3593 25.8385 13.2194 25.7444 13.1018 25.6258L10.6982 23.2222C10.4626 22.9885 10.1446 22.8567 9.81269 22.8553H6.40971C6.07419 22.8553 5.75242 22.7221 5.51518 22.4848C5.27794 22.2476 5.14466 21.9258 5.14466 21.5903V18.1873C5.14326 17.8554 5.0115 17.5374 4.77779 17.3018L2.3742 14.8982C2.25563 14.7806 2.16152 14.6407 2.09729 14.4865C2.03307 14.3324 2 14.167 2 14C2 13.833 2.03307 13.6676 2.09729 13.5135C2.16152 13.3593 2.25563 13.2194 2.3742 13.1018L4.77779 10.6982C5.0115 10.4626 5.14326 10.1446 5.14466 9.81269V6.40971C5.14466 6.07419 5.27794 5.75242 5.51518 5.51518C5.75242 5.27794 6.07419 5.14466 6.40971 5.14466H9.81269C10.1446 5.14326 10.4626 5.0115 10.6982 4.77779L13.1018 2.3742C13.2194 2.25563 13.3593 2.16152 13.5135 2.09729C13.6676 2.03307 13.833 2 14 2C14.167 2 14.3324 2.03307 14.4865 2.09729C14.6407 2.16152 14.7806 2.25563 14.8982 2.3742L17.3018 4.77779C17.5374 5.0115 17.8554 5.14326 18.1873 5.14466H21.5903C21.9258 5.14466 22.2476 5.27794 22.4848 5.51518C22.7221 5.75242 22.8553 6.07419 22.8553 6.40971V9.81269C22.8567 10.1446 22.9885 10.4626 23.2222 10.6982Z" stroke="#011627" stroke-width="2.02408" stroke-linecap="round" stroke-linejoin="round"/>
</svg>
