<svg width="48" height="48" viewBox="0 0 48 48" fill="none" xmlns="http://www.w3.org/2000/svg">
<path d="M32.3333 12C32.1492 12 32 12.1492 32 12.3333V15.6667C32 15.8508 32.1492 16 32.3333 16H35.6667C35.8508 16 36 15.8508 36 15.6667V12.3333C36 12.1492 35.8508 12 35.6667 12H32.3333ZM32 36V35C32 34.4477 32.4477 34 33 34C33.5523 34 34 34.4477 34 35V36H36V35C36 34.4477 36.4477 34 37 34C37.5523 34 38 34.4477 38 35V37C38 37.5523 37.5523 38 37 38H29C28.4477 38 28 37.5523 28 37V35C28 34.4477 28.4477 34 29 34C29.5523 34 30 34.4477 30 35V36H32ZM26 22H27C27.5523 22 28 22.4477 28 23C28 23.5523 27.5523 24 27 24H23C22.4477 24 22 23.5523 22 23C22 22.4477 22.4477 22 23 22H24V20H21C20.4477 20 20 19.5523 20 19C20 18.4477 20.4477 18 21 18H27C27.5523 18 28 18.4477 28 19C28 19.5523 27.5523 20 27 20H26V22ZM36 24H35C34.4477 24 34 23.5523 34 23C34 22.4477 34.4477 22 35 22H36V21C36 20.4477 36.4477 20 37 20C37.5523 20 38 20.4477 38 21V25C38 25.5523 37.5523 26 37 26C36.4477 26 36 25.5523 36 25V24ZM26 28H25C24.4477 28 24 27.5523 24 27C24 26.4477 24.4477 26 25 26H27C27.5523 26 28 26.4477 28 27V31C28 31.5523 27.5523 32 27 32H21C20.4477 32 20 31.5523 20 31C20 30.4477 20.4477 30 21 30H26V28ZM32.3333 10H35.6667C36.9553 10 38 11.0447 38 12.3333V15.6667C38 16.9553 36.9553 18 35.6667 18H32.3333C31.0447 18 30 16.9553 30 15.6667V12.3333C30 11.0447 31.0447 10 32.3333 10ZM12.3333 10H15.6667C16.9553 10 18 11.0447 18 12.3333V15.6667C18 16.9553 16.9553 18 15.6667 18H12.3333C11.0447 18 10 16.9553 10 15.6667V12.3333C10 11.0447 11.0447 10 12.3333 10ZM12.3333 12C12.1492 12 12 12.1492 12 12.3333V15.6667C12 15.8508 12.1492 16 12.3333 16H15.6667C15.8508 16 16 15.8508 16 15.6667V12.3333C16 12.1492 15.8508 12 15.6667 12H12.3333ZM12.3333 30H15.6667C16.9553 30 18 31.0447 18 32.3333V35.6667C18 36.9553 16.9553 38 15.6667 38H12.3333C11.0447 38 10 36.9553 10 35.6667V32.3333C10 31.0447 11.0447 30 12.3333 30ZM12.3333 32C12.1492 32 12 32.1492 12 32.3333V35.6667C12 35.8508 12.1492 36 12.3333 36H15.6667C15.8508 36 16 35.8508 16 35.6667V32.3333C16 32.1492 15.8508 32 15.6667 32H12.3333ZM26 12H21C20.4477 12 20 11.5523 20 11C20 10.4477 20.4477 10 21 10H27C27.5523 10 28 10.4477 28 11V15C28 15.5523 27.5523 16 27 16C26.4477 16 26 15.5523 26 15V12ZM21 16C20.4477 16 20 15.5523 20 15C20 14.4477 20.4477 14 21 14H23C23.5523 14 24 14.4477 24 15C24 15.5523 23.5523 16 23 16H21ZM11 28C10.4477 28 10 27.5523 10 27C10 26.4477 10.4477 26 11 26H15C15.5523 26 16 26.4477 16 27C16 27.5523 15.5523 28 15 28H11ZM19 28C18.4477 28 18 27.5523 18 27C18 26.4477 18.4477 26 19 26H21C21.5523 26 22 26.4477 22 27C22 27.5523 21.5523 28 21 28H19ZM22 36V37C22 37.5523 21.5523 38 21 38C20.4477 38 20 37.5523 20 37V35C20 34.4477 20.4477 34 21 34H25C25.5523 34 26 34.4477 26 35C26 35.5523 25.5523 36 25 36H22ZM18 22H19C19.5523 22 20 22.4477 20 23C20 23.5523 19.5523 24 19 24H17C16.4477 24 16 23.5523 16 23V22H15C14.4477 22 14 21.5523 14 21C14 20.4477 14.4477 20 15 20H17C17.5523 20 18 20.4477 18 21V22ZM10 21C10 20.4477 10.4477 20 11 20C11.5523 20 12 20.4477 12 21V23C12 23.5523 11.5523 24 11 24C10.4477 24 10 23.5523 10 23V21ZM30 21C30 20.4477 30.4477 20 31 20C31.5523 20 32 20.4477 32 21V25C32 25.5523 31.5523 26 31 26C30.4477 26 30 25.5523 30 25V21ZM34 30V29C34 28.4477 34.4477 28 35 28H37C37.5523 28 38 28.4477 38 29C38 29.5523 37.5523 30 37 30H36V31C36 31.5523 35.5523 32 35 32H31C30.4477 32 30 31.5523 30 31V29C30 28.4477 30.4477 28 31 28C31.5523 28 32 28.4477 32 29V30H34ZM6 13C6 13.5523 5.55228 14 5 14C4.44772 14 4 13.5523 4 13V9C4 6.23858 6.23858 4 9 4H13C13.5523 4 14 4.44772 14 5C14 5.55228 13.5523 6 13 6H9C7.34315 6 6 7.34315 6 9V13ZM35 6C34.4477 6 34 5.55228 34 5C34 4.44772 34.4477 4 35 4H39C41.7614 4 44 6.23858 44 9V13C44 13.5523 43.5523 14 43 14C42.4477 14 42 13.5523 42 13V9C42 7.34315 40.6568 6 39 6H35ZM13 42C13.5523 42 14 42.4477 14 43C14 43.5523 13.5523 44 13 44H9C6.23858 44 4 41.7614 4 39V35C4 34.4477 4.44772 34 5 34C5.55228 34 6 34.4477 6 35V39C6 40.6568 7.34315 42 9 42H13ZM42 35C42 34.4477 42.4477 34 43 34C43.5523 34 44 34.4477 44 35V39C44 41.7614 41.7614 44 39 44H35C34.4477 44 34 43.5523 34 43C34 42.4477 34.4477 42 35 42H39C40.6568 42 42 40.6568 42 39V35Z" fill="white"/>
</svg>
