<svg width="32" height="32" viewBox="0 0 32 32" fill="none" xmlns="http://www.w3.org/2000/svg">
<path d="M27.3333 15.0667V9.38668C27.3333 4.01334 26.08 2.66666 21.04 2.66666H10.96C5.91996 2.66666 4.66663 4.01334 4.66663 9.38668V24.4C4.66663 27.9467 6.61331 28.7867 8.97331 26.2533L8.98661 26.24C10.0799 25.08 11.7466 25.1733 12.6933 26.44L14.04 28.24" stroke="#011627" stroke-width="2.16802" stroke-linecap="round" stroke-linejoin="round"/>
<path d="M24.2667 28.5333C26.6231 28.5333 28.5333 26.6231 28.5333 24.2667C28.5333 21.9103 26.6231 20 24.2667 20C21.9103 20 20 21.9103 20 24.2667C20 26.6231 21.9103 28.5333 24.2667 28.5333Z" stroke="#011627" stroke-width="2.16802" stroke-linecap="round" stroke-linejoin="round"/>
<path d="M29.3333 29.3333L28 28" stroke="#011627" stroke-width="2.16802" stroke-linecap="round" stroke-linejoin="round"/>
<path d="M10.6666 10.103H21.3333" stroke="#ED8F03" stroke-width="2.16802" stroke-linecap="round" stroke-linejoin="round"/>
<path d="M12 15.4363H20" stroke="#ED8F03" stroke-width="2.16802" stroke-linecap="round" stroke-linejoin="round"/>
</svg>
