<svg width="52" height="40" viewBox="0 0 52 40" fill="none" xmlns="http://www.w3.org/2000/svg">
<path d="M26 17.7951C28.096 17.7951 29.7951 16.096 29.7951 14C29.7951 11.904 28.096 10.2048 26 10.2048C23.904 10.2048 22.2048 11.904 22.2048 14C22.2048 16.096 23.904 17.7951 26 17.7951Z" stroke="#ED8F03" stroke-width="2.02408" stroke-linecap="round" stroke-linejoin="round"/>
<path d="M35.2222 10.6982L37.6258 13.1018C37.7444 13.2194 37.8385 13.3593 37.9027 13.5135C37.9669 13.6676 38 13.833 38 14C38 14.167 37.9669 14.3324 37.9027 14.4865C37.8385 14.6407 37.7444 14.7806 37.6258 14.8982L35.2222 17.3018C34.9885 17.5374 34.8567 17.8554 34.8553 18.1873V21.5903C34.8553 21.9258 34.7221 22.2476 34.4848 22.4848C34.2476 22.7221 33.9258 22.8553 33.5903 22.8553H30.1873C29.8554 22.8567 29.5374 22.9885 29.3018 23.2222L26.8982 25.6258C26.7806 25.7444 26.6407 25.8385 26.4865 25.9027C26.3324 25.9669 26.167 26 26 26C25.833 26 25.6676 25.9669 25.5135 25.9027C25.3593 25.8385 25.2194 25.7444 25.1018 25.6258L22.6982 23.2222C22.4626 22.9885 22.1446 22.8567 21.8127 22.8553H18.4097C18.0742 22.8553 17.7524 22.7221 17.5152 22.4848C17.2779 22.2476 17.1447 21.9258 17.1447 21.5903V18.1873C17.1433 17.8554 17.0115 17.5374 16.7778 17.3018L14.3742 14.8982C14.2556 14.7806 14.1615 14.6407 14.0973 14.4865C14.0331 14.3324 14 14.167 14 14C14 13.833 14.0331 13.6676 14.0973 13.5135C14.1615 13.3593 14.2556 13.2194 14.3742 13.1018L16.7778 10.6982C17.0115 10.4626 17.1433 10.1446 17.1447 9.81269V6.40971C17.1447 6.07419 17.2779 5.75242 17.5152 5.51518C17.7524 5.27794 18.0742 5.14466 18.4097 5.14466H21.8127C22.1446 5.14326 22.4626 5.0115 22.6982 4.77779L25.1018 2.3742C25.2194 2.25563 25.3593 2.16152 25.5135 2.09729C25.6676 2.03307 25.833 2 26 2C26.167 2 26.3324 2.03307 26.4865 2.09729C26.6407 2.16152 26.7806 2.25563 26.8982 2.3742L29.3018 4.77779C29.5374 5.0115 29.8554 5.14326 30.1873 5.14466H33.5903C33.9258 5.14466 34.2476 5.27794 34.4848 5.51518C34.7221 5.75242 34.8553 6.07419 34.8553 6.40971V9.81269C34.8567 10.1446 34.9885 10.4626 35.2222 10.6982Z" stroke="#011627" stroke-width="2.02408" stroke-linecap="round" stroke-linejoin="round"/>
<path d="M13.9141 33.7102C13.8838 33.4413 13.7588 33.233 13.5391 33.0852C13.3194 32.9356 13.0429 32.8608 12.7095 32.8608C12.4709 32.8608 12.2644 32.8987 12.0902 32.9744C11.916 33.0483 11.7805 33.1506 11.6839 33.2812C11.5893 33.41 11.5419 33.5568 11.5419 33.7216C11.5419 33.8598 11.5741 33.9792 11.6385 34.0795C11.7048 34.1799 11.791 34.2642 11.897 34.3324C12.005 34.3987 12.1205 34.4545 12.2436 34.5C12.3667 34.5436 12.4851 34.5795 12.5987 34.608L13.1669 34.7557C13.3525 34.8011 13.5429 34.8627 13.7379 34.9403C13.933 35.018 14.1139 35.1203 14.2805 35.2472C14.4472 35.3741 14.5817 35.5312 14.6839 35.7188C14.7881 35.9062 14.8402 36.1307 14.8402 36.392C14.8402 36.7216 14.755 37.0142 14.5845 37.2699C14.416 37.5256 14.1707 37.7273 13.8487 37.875C13.5286 38.0227 13.1413 38.0966 12.6868 38.0966C12.2512 38.0966 11.8743 38.0275 11.5561 37.8892C11.2379 37.7509 10.9889 37.5549 10.8089 37.3011C10.629 37.0455 10.5296 36.7424 10.5107 36.392H11.3913C11.4084 36.6023 11.4766 36.7775 11.5959 36.9176C11.7171 37.0559 11.8714 37.1591 12.0589 37.2273C12.2483 37.2936 12.4557 37.3267 12.6811 37.3267C12.9292 37.3267 13.1499 37.2879 13.343 37.2102C13.5381 37.1307 13.6915 37.0208 13.8033 36.8807C13.915 36.7386 13.9709 36.5729 13.9709 36.3835C13.9709 36.2112 13.9216 36.0701 13.8232 35.9602C13.7266 35.8504 13.5949 35.7595 13.4283 35.6875C13.2635 35.6155 13.0769 35.5521 12.8686 35.4972L12.1811 35.3097C11.7152 35.1828 11.3459 34.9962 11.0732 34.75C10.8023 34.5038 10.6669 34.178 10.6669 33.7727C10.6669 33.4375 10.7578 33.1449 10.9396 32.8949C11.1214 32.6449 11.3677 32.4508 11.6783 32.3125C11.9889 32.1723 12.3393 32.1023 12.7294 32.1023C13.1233 32.1023 13.4709 32.1714 13.772 32.3097C14.075 32.4479 14.3137 32.6383 14.4879 32.8807C14.6622 33.1212 14.7531 33.3977 14.7607 33.7102H13.9141ZM17.7017 38.0881C17.2718 38.0881 16.9015 37.9962 16.5909 37.8125C16.2822 37.6269 16.0436 37.3665 15.875 37.0312C15.7083 36.6941 15.625 36.2992 15.625 35.8466C15.625 35.3996 15.7083 35.0057 15.875 34.6648C16.0436 34.3239 16.2784 34.0578 16.5795 33.8665C16.8826 33.6752 17.2367 33.5795 17.642 33.5795C17.8883 33.5795 18.1269 33.6203 18.358 33.7017C18.589 33.7831 18.7964 33.911 18.9801 34.0852C19.1638 34.2595 19.3087 34.4858 19.4148 34.7642C19.5208 35.0407 19.5739 35.3769 19.5739 35.7727V36.0739H16.1051V35.4375H18.7415C18.7415 35.214 18.696 35.0161 18.6051 34.8438C18.5142 34.6695 18.3864 34.5322 18.2216 34.4318C18.0587 34.3314 17.8674 34.2812 17.6477 34.2812C17.4091 34.2812 17.2008 34.34 17.0227 34.4574C16.8466 34.5729 16.7102 34.7244 16.6136 34.9119C16.5189 35.0975 16.4716 35.2992 16.4716 35.517V36.0142C16.4716 36.3059 16.5227 36.554 16.625 36.7585C16.7292 36.9631 16.8741 37.1193 17.0597 37.2273C17.2453 37.3333 17.4621 37.3864 17.7102 37.3864C17.8712 37.3864 18.018 37.3636 18.1506 37.3182C18.2831 37.2708 18.3977 37.2008 18.4943 37.108C18.5909 37.0152 18.6648 36.9006 18.7159 36.7642L19.5199 36.9091C19.4555 37.1458 19.34 37.3532 19.1733 37.5312C19.0085 37.7074 18.8011 37.8447 18.5511 37.9432C18.303 38.0398 18.0199 38.0881 17.7017 38.0881ZM22.5533 33.6364V34.3182H20.1697V33.6364H22.5533ZM20.8089 32.5909H21.6584V36.7188C21.6584 36.8835 21.683 37.0076 21.7322 37.0909C21.7815 37.1723 21.8449 37.2282 21.9226 37.2585C22.0021 37.2869 22.0883 37.3011 22.1811 37.3011C22.2493 37.3011 22.3089 37.2964 22.3601 37.2869C22.4112 37.2775 22.451 37.2699 22.4794 37.2642L22.6328 37.9659C22.5836 37.9848 22.5135 38.0038 22.4226 38.0227C22.3317 38.0436 22.218 38.0549 22.0817 38.0568C21.8582 38.0606 21.6499 38.0208 21.4567 37.9375C21.2635 37.8542 21.1072 37.7254 20.9879 37.5511C20.8686 37.3769 20.8089 37.1581 20.8089 36.8949V32.5909ZM25.5298 33.6364V34.3182H23.1463V33.6364H25.5298ZM23.7855 32.5909H24.6349V36.7188C24.6349 36.8835 24.6596 37.0076 24.7088 37.0909C24.758 37.1723 24.8215 37.2282 24.8991 37.2585C24.9787 37.2869 25.0649 37.3011 25.1577 37.3011C25.2259 37.3011 25.2855 37.2964 25.3366 37.2869C25.3878 37.2775 25.4276 37.2699 25.456 37.2642L25.6094 37.9659C25.5601 37.9848 25.4901 38.0038 25.3991 38.0227C25.3082 38.0436 25.1946 38.0549 25.0582 38.0568C24.8348 38.0606 24.6264 38.0208 24.4332 37.9375C24.2401 37.8542 24.0838 37.7254 23.9645 37.5511C23.8452 37.3769 23.7855 37.1581 23.7855 36.8949V32.5909ZM26.4695 38V33.6364H27.3189V38H26.4695ZM26.8984 32.9631C26.7507 32.9631 26.6238 32.9138 26.5178 32.8153C26.4136 32.715 26.3615 32.5956 26.3615 32.4574C26.3615 32.3172 26.4136 32.1979 26.5178 32.0994C26.6238 31.9991 26.7507 31.9489 26.8984 31.9489C27.0462 31.9489 27.1721 31.9991 27.2763 32.0994C27.3823 32.1979 27.4354 32.3172 27.4354 32.4574C27.4354 32.5956 27.3823 32.715 27.2763 32.8153C27.1721 32.9138 27.0462 32.9631 26.8984 32.9631ZM29.3111 35.4091V38H28.4616V33.6364H29.277V34.3466H29.331C29.4313 34.1155 29.5885 33.9299 29.8026 33.7898C30.0185 33.6496 30.2902 33.5795 30.6179 33.5795C30.9152 33.5795 31.1757 33.642 31.3991 33.767C31.6226 33.8902 31.7959 34.0739 31.919 34.3182C32.0421 34.5625 32.1037 34.8646 32.1037 35.2244V38H31.2543V35.3267C31.2543 35.0104 31.1719 34.7633 31.0071 34.5852C30.8423 34.4053 30.616 34.3153 30.3281 34.3153C30.1312 34.3153 29.956 34.358 29.8026 34.4432C29.651 34.5284 29.5308 34.6534 29.4418 34.8182C29.3546 34.9811 29.3111 35.178 29.3111 35.4091ZM35.0724 39.7273C34.7259 39.7273 34.4276 39.6818 34.1776 39.5909C33.9295 39.5 33.7268 39.3797 33.5696 39.2301C33.4124 39.0805 33.295 38.9167 33.2173 38.7386L33.9474 38.4375C33.9986 38.5208 34.0668 38.6089 34.152 38.7017C34.2391 38.7964 34.3565 38.8769 34.5043 38.9432C34.6539 39.0095 34.8461 39.0426 35.081 39.0426C35.4029 39.0426 35.669 38.964 35.8793 38.8068C36.0895 38.6515 36.1946 38.4034 36.1946 38.0625V37.2045H36.1406C36.0895 37.2973 36.0156 37.4006 35.919 37.5142C35.8243 37.6278 35.6937 37.7263 35.527 37.8097C35.3603 37.893 35.1435 37.9347 34.8764 37.9347C34.5317 37.9347 34.2211 37.8542 33.9446 37.6932C33.67 37.5303 33.4522 37.2907 33.2912 36.9744C33.1321 36.6562 33.0526 36.2652 33.0526 35.8011C33.0526 35.3371 33.1312 34.9394 33.2884 34.608C33.4474 34.2765 33.6652 34.0227 33.9418 33.8466C34.2183 33.6686 34.5317 33.5795 34.8821 33.5795C35.1529 33.5795 35.3717 33.625 35.5384 33.7159C35.705 33.8049 35.8348 33.9091 35.9276 34.0284C36.0223 34.1477 36.0952 34.2528 36.1463 34.3438H36.2088V33.6364H37.0412V38.0966C37.0412 38.4716 36.9541 38.7794 36.7798 39.0199C36.6056 39.2604 36.3698 39.4384 36.0724 39.554C35.777 39.6695 35.4437 39.7273 35.0724 39.7273ZM35.0639 37.2301C35.3082 37.2301 35.5147 37.1733 35.6832 37.0597C35.8537 36.9441 35.9825 36.7794 36.0696 36.5653C36.1586 36.3494 36.2031 36.0909 36.2031 35.7898C36.2031 35.4962 36.1596 35.2377 36.0724 35.0142C35.9853 34.7907 35.8575 34.6165 35.6889 34.4915C35.5204 34.3646 35.312 34.3011 35.0639 34.3011C34.8082 34.3011 34.5952 34.3674 34.4247 34.5C34.2543 34.6307 34.1255 34.8087 34.0384 35.0341C33.9531 35.2595 33.9105 35.5114 33.9105 35.7898C33.9105 36.0758 33.9541 36.3267 34.0412 36.5426C34.1283 36.7585 34.2571 36.9271 34.4276 37.0483C34.5999 37.1695 34.812 37.2301 35.0639 37.2301ZM41.4503 34.7017L40.6804 34.8381C40.6482 34.7396 40.5971 34.6458 40.527 34.5568C40.4588 34.4678 40.366 34.3949 40.2486 34.3381C40.1312 34.2812 39.9844 34.2528 39.8082 34.2528C39.5677 34.2528 39.367 34.3068 39.206 34.4148C39.045 34.5208 38.9645 34.6581 38.9645 34.8267C38.9645 34.9725 39.0185 35.09 39.1264 35.179C39.2344 35.268 39.4086 35.3409 39.6491 35.3977L40.3423 35.5568C40.7438 35.6496 41.0431 35.7926 41.2401 35.9858C41.437 36.179 41.5355 36.4299 41.5355 36.7386C41.5355 37 41.4598 37.233 41.3082 37.4375C41.1586 37.6402 40.9493 37.7992 40.6804 37.9148C40.4134 38.0303 40.1037 38.0881 39.7514 38.0881C39.2628 38.0881 38.8641 37.9839 38.5554 37.7756C38.2467 37.5653 38.0573 37.267 37.9872 36.8807L38.8082 36.7557C38.8594 36.9697 38.9645 37.1316 39.1236 37.2415C39.2827 37.3494 39.4901 37.4034 39.7457 37.4034C40.0241 37.4034 40.2467 37.3456 40.4134 37.2301C40.58 37.1127 40.6634 36.9697 40.6634 36.8011C40.6634 36.6648 40.6122 36.5502 40.5099 36.4574C40.4096 36.3646 40.2552 36.2945 40.0469 36.2472L39.3082 36.0852C38.901 35.9924 38.5999 35.8447 38.4048 35.642C38.2116 35.4394 38.1151 35.1828 38.1151 34.8722C38.1151 34.6146 38.187 34.3892 38.331 34.196C38.4749 34.0028 38.6738 33.8523 38.9276 33.7443C39.1813 33.6345 39.4721 33.5795 39.7997 33.5795C40.2713 33.5795 40.6425 33.6818 40.9134 33.8864C41.1842 34.089 41.3632 34.3608 41.4503 34.7017Z" fill="#011627"/>
</svg>
