<svg width="22" height="22" viewBox="0 0 22 22" fill="none" xmlns="http://www.w3.org/2000/svg">
<path d="M15.5139 4.49999C15.4142 4.49999 15.3334 4.58083 15.3334 4.68054V6.4861C15.3334 6.58582 15.4142 6.66666 15.5139 6.66666H17.3195C17.4192 6.66666 17.5 6.58582 17.5 6.4861V4.68054C17.5 4.58083 17.4192 4.49999 17.3195 4.49999H15.5139ZM15.3334 17.5V16.9583C15.3334 16.6592 15.5759 16.4167 15.875 16.4167C16.1742 16.4167 16.4167 16.6592 16.4167 16.9583V17.5H17.5V16.9583C17.5 16.6592 17.7425 16.4167 18.0417 16.4167C18.3408 16.4167 18.5834 16.6592 18.5834 16.9583V18.0417C18.5834 18.3408 18.3408 18.5833 18.0417 18.5833H13.7084C13.4092 18.5833 13.1667 18.3408 13.1667 18.0417V16.9583C13.1667 16.6592 13.4092 16.4167 13.7084 16.4167C14.0075 16.4167 14.25 16.6592 14.25 16.9583V17.5H15.3334ZM12.0834 9.91666H12.625C12.9242 9.91666 13.1667 10.1592 13.1667 10.4583C13.1667 10.7575 12.9242 11 12.625 11H10.4584C10.1592 11 9.91669 10.7575 9.91669 10.4583C9.91669 10.1592 10.1592 9.91666 10.4584 9.91666H11V8.83332H9.37502C9.07587 8.83332 8.83335 8.59081 8.83335 8.29166C8.83335 7.9925 9.07587 7.74999 9.37502 7.74999H12.625C12.9242 7.74999 13.1667 7.9925 13.1667 8.29166C13.1667 8.59081 12.9242 8.83332 12.625 8.83332H12.0834V9.91666ZM17.5 11H16.9584C16.6592 11 16.4167 10.7575 16.4167 10.4583C16.4167 10.1592 16.6592 9.91666 16.9584 9.91666H17.5V9.37499C17.5 9.07584 17.7425 8.83332 18.0417 8.83332C18.3408 8.83332 18.5834 9.07584 18.5834 9.37499V11.5417C18.5834 11.8408 18.3408 12.0833 18.0417 12.0833C17.7425 12.0833 17.5 11.8408 17.5 11.5417V11ZM12.0834 13.1667H11.5417C11.2425 13.1667 11 12.9241 11 12.625C11 12.3258 11.2425 12.0833 11.5417 12.0833H12.625C12.9242 12.0833 13.1667 12.3258 13.1667 12.625V14.7917C13.1667 15.0908 12.9242 15.3333 12.625 15.3333H9.37502C9.07587 15.3333 8.83335 15.0908 8.83335 14.7917C8.83335 14.4925 9.07587 14.25 9.37502 14.25H12.0834V13.1667ZM15.5139 3.41666H17.3195C18.0175 3.41666 18.5834 3.98252 18.5834 4.68054V6.4861C18.5834 7.18413 18.0175 7.74999 17.3195 7.74999H15.5139C14.8159 7.74999 14.25 7.18413 14.25 6.4861V4.68054C14.25 3.98252 14.8159 3.41666 15.5139 3.41666ZM4.68058 3.41666H6.48613C7.18416 3.41666 7.75002 3.98252 7.75002 4.68054V6.4861C7.75002 7.18413 7.18416 7.74999 6.48613 7.74999H4.68058C3.98255 7.74999 3.41669 7.18413 3.41669 6.4861V4.68054C3.41669 3.98252 3.98255 3.41666 4.68058 3.41666ZM4.68058 4.49999C4.58086 4.49999 4.50002 4.58083 4.50002 4.68054V6.4861C4.50002 6.58582 4.58086 6.66666 4.68058 6.66666H6.48613C6.58585 6.66666 6.66669 6.58582 6.66669 6.4861V4.68054C6.66669 4.58083 6.58585 4.49999 6.48613 4.49999H4.68058ZM4.68058 14.25H6.48613C7.18416 14.25 7.75002 14.8159 7.75002 15.5139V17.3194C7.75002 18.0175 7.18416 18.5833 6.48613 18.5833H4.68058C3.98255 18.5833 3.41669 18.0175 3.41669 17.3194V15.5139C3.41669 14.8159 3.98255 14.25 4.68058 14.25ZM4.68058 15.3333C4.58086 15.3333 4.50002 15.4142 4.50002 15.5139V17.3194C4.50002 17.4192 4.58086 17.5 4.68058 17.5H6.48613C6.58585 17.5 6.66669 17.4192 6.66669 17.3194V15.5139C6.66669 15.4142 6.58585 15.3333 6.48613 15.3333H4.68058ZM12.0834 4.49999H9.37502C9.07587 4.49999 8.83335 4.25748 8.83335 3.95832C8.83335 3.65917 9.07587 3.41666 9.37502 3.41666H12.625C12.9242 3.41666 13.1667 3.65917 13.1667 3.95832V6.12499C13.1667 6.42414 12.9242 6.66666 12.625 6.66666C12.3259 6.66666 12.0834 6.42414 12.0834 6.12499V4.49999ZM9.37502 6.66666C9.07587 6.66666 8.83335 6.42414 8.83335 6.12499C8.83335 5.82584 9.07587 5.58332 9.37502 5.58332H10.4584C10.7575 5.58332 11 5.82584 11 6.12499C11 6.42414 10.7575 6.66666 10.4584 6.66666H9.37502ZM3.95835 13.1667C3.6592 13.1667 3.41669 12.9241 3.41669 12.625C3.41669 12.3258 3.6592 12.0833 3.95835 12.0833H6.12502C6.42417 12.0833 6.66669 12.3258 6.66669 12.625C6.66669 12.9241 6.42417 13.1667 6.12502 13.1667H3.95835ZM8.29169 13.1667C7.99253 13.1667 7.75002 12.9241 7.75002 12.625C7.75002 12.3258 7.99253 12.0833 8.29169 12.0833H9.37502C9.67417 12.0833 9.91669 12.3258 9.91669 12.625C9.91669 12.9241 9.67417 13.1667 9.37502 13.1667H8.29169ZM9.91669 17.5V18.0417C9.91669 18.3408 9.67417 18.5833 9.37502 18.5833C9.07587 18.5833 8.83335 18.3408 8.83335 18.0417V16.9583C8.83335 16.6592 9.07587 16.4167 9.37502 16.4167H11.5417C11.8408 16.4167 12.0834 16.6592 12.0834 16.9583C12.0834 17.2575 11.8408 17.5 11.5417 17.5H9.91669ZM7.75002 9.91666H8.29169C8.59084 9.91666 8.83335 10.1592 8.83335 10.4583C8.83335 10.7575 8.59084 11 8.29169 11H7.20835C6.9092 11 6.66669 10.7575 6.66669 10.4583V9.91666H6.12502C5.82587 9.91666 5.58335 9.67414 5.58335 9.37499C5.58335 9.07584 5.82587 8.83332 6.12502 8.83332H7.20835C7.50751 8.83332 7.75002 9.07584 7.75002 9.37499V9.91666ZM3.41669 9.37499C3.41669 9.07584 3.6592 8.83332 3.95835 8.83332C4.25751 8.83332 4.50002 9.07584 4.50002 9.37499V10.4583C4.50002 10.7575 4.25751 11 3.95835 11C3.6592 11 3.41669 10.7575 3.41669 10.4583V9.37499ZM14.25 9.37499C14.25 9.07584 14.4925 8.83332 14.7917 8.83332C15.0908 8.83332 15.3334 9.07584 15.3334 9.37499V11.5417C15.3334 11.8408 15.0908 12.0833 14.7917 12.0833C14.4925 12.0833 14.25 11.8408 14.25 11.5417V9.37499ZM16.4167 14.25V13.7083C16.4167 13.4092 16.6592 13.1667 16.9584 13.1667H18.0417C18.3408 13.1667 18.5834 13.4092 18.5834 13.7083C18.5834 14.0075 18.3408 14.25 18.0417 14.25H17.5V14.7917C17.5 15.0908 17.2575 15.3333 16.9584 15.3333H14.7917C14.4925 15.3333 14.25 15.0908 14.25 14.7917V13.7083C14.25 13.4092 14.4925 13.1667 14.7917 13.1667C15.0908 13.1667 15.3334 13.4092 15.3334 13.7083V14.25H16.4167ZM1.25002 5.04166C1.25002 5.34081 1.00751 5.58332 0.708354 5.58332C0.409199 5.58332 0.166687 5.34081 0.166687 5.04166V2.87499C0.166687 1.37922 1.37925 0.166656 2.87502 0.166656H5.04169C5.34084 0.166656 5.58335 0.409169 5.58335 0.708323C5.58335 1.00748 5.34084 1.24999 5.04169 1.24999H2.87502C1.97756 1.24999 1.25002 1.97753 1.25002 2.87499V5.04166ZM16.9584 1.24999C16.6592 1.24999 16.4167 1.00748 16.4167 0.708323C16.4167 0.409169 16.6592 0.166656 16.9584 0.166656H19.125C20.6208 0.166656 21.8334 1.37922 21.8334 2.87499V5.04166C21.8334 5.34081 21.5908 5.58332 21.2917 5.58332C20.9925 5.58332 20.75 5.34081 20.75 5.04166V2.87499C20.75 1.97753 20.0225 1.24999 19.125 1.24999H16.9584ZM5.04169 20.75C5.34084 20.75 5.58335 20.9925 5.58335 21.2917C5.58335 21.5908 5.34084 21.8333 5.04169 21.8333H2.87502C1.37925 21.8333 0.166687 20.6208 0.166687 19.125V16.9583C0.166687 16.6592 0.409199 16.4167 0.708354 16.4167C1.00751 16.4167 1.25002 16.6592 1.25002 16.9583V19.125C1.25002 20.0225 1.97756 20.75 2.87502 20.75H5.04169ZM20.75 16.9583C20.75 16.6592 20.9925 16.4167 21.2917 16.4167C21.5908 16.4167 21.8334 16.6592 21.8334 16.9583V19.125C21.8334 20.6208 20.6208 21.8333 19.125 21.8333H16.9584C16.6592 21.8333 16.4167 21.5908 16.4167 21.2917C16.4167 20.9925 16.6592 20.75 16.9584 20.75H19.125C20.0225 20.75 20.75 20.0225 20.75 19.125V16.9583Z" fill="#011627"/>
</svg>
