<svg width="20" height="20" viewBox="0 0 20 20" fill="none" xmlns="http://www.w3.org/2000/svg">
<path d="M18.3333 18.3333L16.6666 16.6667M9.58329 17.5C10.6229 17.5 11.6524 17.2952 12.6129 16.8974C13.5734 16.4995 14.4461 15.9164 15.1812 15.1813C15.9164 14.4461 16.4995 13.5734 16.8973 12.6129C17.2952 11.6524 17.5 10.623 17.5 9.58334C17.5 8.54371 17.2952 7.51426 16.8973 6.55376C16.4995 5.59327 15.9164 4.72054 15.1812 3.98541C14.4461 3.25028 13.5734 2.66714 12.6129 2.26929C11.6524 1.87144 10.6229 1.66667 9.58329 1.66667C7.48366 1.66667 5.47003 2.50075 3.98536 3.98541C2.5007 5.47007 1.66663 7.48371 1.66663 9.58334C1.66663 11.683 2.5007 13.6966 3.98536 15.1813C5.47003 16.6659 7.48366 17.5 9.58329 17.5Z" stroke="#6C757D" stroke-width="1.5" stroke-linecap="round" stroke-linejoin="round"/>
</svg>
